<svg version="1.1" fill="#0097fa" xmlns="http://www.w3.org/2000/svg" xmlns:xlink="http://www.w3.org/1999/xlink" x="0px" y="0px"
	 viewBox="0 0 508 508" style="enable-background:new 0 0 508 508;" xml:space="preserve">
<g>
	<g>
		<path d="M483.4,360.5V90.1c0-13.6-11-24.6-24.6-24.6H49.2c-13.6,0-24.6,11-24.6,24.6v270.4H0v44.4l37.6,37.6h432.8l37.6-37.6
			v-44.4H483.4z M41,90.1c0-4.5,3.7-8.2,8.2-8.2h409.7c4.5,0,8.2,3.7,8.2,8.2v270.4H311.4v16.4H196.6v-16.4H41V90.1z M491.7,398.1
			h-0.1l-28,28H44.4l-28-28v-21.2h163.9v16.4h147.5v-16.4h163.9V398.1z"/>
	</g>
</g>
<g>
	<g>
		<rect x="245.8" y="401.5" width="16.4" height="16.4"/>
	</g>
</g>
<g>
	<g>
		<rect x="213" y="401.5" width="16.4" height="16.4"/>
	</g>
</g>
<g>
	<g>
		<rect x="278.6" y="401.5" width="16.4" height="16.4"/>
	</g>
</g>
<g>
	<g>
		<rect x="352.3" y="393.3" width="98.3" height="16.4"/>
	</g>
</g>
<g>
	<g>
		<path d="M450.6,98.3H57.4v245.8h393.3V98.3H450.6z M189,327.8c4.1-32.3,31.6-57.4,65-57.4c33.4,0,60.9,25.1,65,57.4H189z
			 M221.2,221.2c0-18.1,14.7-32.8,32.8-32.8c18.1,0,32.8,14.7,32.8,32.8c0,18.1-14.7,32.8-32.7,32.8
			C235.9,254,221.2,239.3,221.2,221.2z M335.6,327.7c-3.1-30.9-23.4-56.8-51.2-67.9c11.5-9,18.9-23,18.9-38.6
			c0-27.1-22.1-49.2-49.2-49.2c-27.1,0-49.2,22.1-49.2,49.2c0,15.7,7.4,29.6,18.9,38.6c-27.8,11.1-48.1,37-51.2,67.9H73.7v-213
			h360.5v213H335.6z"/>
	</g>
</g>
</svg>
