<svg height="350" viewBox="0 0 1011 350" width="1011" xmlns="http://www.w3.org/2000/svg"><g fill="none" fill-rule="evenodd"><g fill="#ffce00" transform="matrix(.93358043 .35836795 -.35836795 .93358043 69.076589 -45.285991)"><path d="m86.0128533 58.7258331-39.7030678 21.1170747c-3.90084 2.0747598-5.3811704 6.9189405-3.3064106 10.8197805.8260654 1.5531191 2.1410186 2.7906598 3.7413433 3.5210869l39.7030678 18.1214458c4.0194024 1.834554 8.7649709.063383 10.599524-3.956019.4759258-1.042727.7222282-2.175548.7222282-3.321752v-39.2385214c0-4.418278-3.581722-8-8-8-1.3100517 0-2.6000575.3217231-3.7566849.9369045z" transform="matrix(.76604444 .64278761 -.64278761 .76604444 69.79958 -21.82728)"/><path d="m166.506008 12.2530884-39.703068 21.1170748c-3.90084 2.0747598-5.38117 6.9189405-3.30641 10.8197804.826065 1.5531191 2.141018 2.7906598 3.741343 3.5210869l39.703068 18.1214463c4.019402 1.8345531 8.764971.0633827 10.599524-3.9560197.475926-1.0427265.722228-2.1755479.722228-3.3217521v-39.238521c0-4.418278-3.581722-8-8-8-1.310052 0-2.600057.321723-3.756685.9369044z" transform="matrix(.17364818 .98480775 -.98480775 .17364818 158.048411 -111.354762)"/><path d="m258.039447 28.3929033-39.703068 21.1170747c-3.90084 2.0747598-5.38117 6.9189405-3.306411 10.8197805.826066 1.553119 2.141019 2.7906597 3.741344 3.5210869l39.703067 18.1214463c4.019403 1.834553 8.764971.0633827 10.599524-3.9560197.475926-1.0427266.722229-2.175548.722229-3.3217522v-39.238521c0-4.418278-3.581722-8-8-8-1.310052 0-2.600058.3217231-3.756685.9369045z" transform="matrix(-.5 .8660254 -.8660254 -.5 402.686512 -123.211536)"/><path d="m258.039447 263.739144-39.703068 21.117075c-3.90084 2.074759-5.38117 6.91894-3.306411 10.81978.826066 1.553119 2.141019 2.79066 3.741344 3.521087l39.703067 18.121446c4.019403 1.834553 8.764971.063383 10.599524-3.956019.475926-1.042727.722229-2.175548.722229-3.321753v-39.238521c0-4.418278-3.581722-8-8-8-1.310052 0-2.600058.321723-3.756685.936905z" transform="matrix(-.5 -.8660254 .8660254 -.5 104.231754 640.150341)"/><path d="m166.506008 279.878959-39.703068 21.117074c-3.90084 2.07476-5.38117 6.918941-3.30641 10.819781.826065 1.553119 2.141018 2.79066 3.741343 3.521087l39.703068 18.121446c4.019402 1.834553 8.764971.063383 10.599524-3.95602.475926-1.042726.722228-2.175548.722228-3.321752v-39.238521c0-4.418278-3.581722-8-8-8-1.310052 0-2.600057.321723-3.756685.936905z" transform="matrix(.17364818 -.98480775 .98480775 .17364818 -181.341818 396.136977)"/><path d="m86.0128533 233.406214-39.7030678 21.117075c-3.90084 2.07476-5.3811704 6.91894-3.3064106 10.81978.8260654 1.553119 2.1410186 2.79066 3.7413433 3.521087l39.7030678 18.121446c4.0194024 1.834553 8.7649709.063383 10.599524-3.956019.4759258-1.042727.7222282-2.175548.7222282-3.321752v-39.238521c0-4.418278-3.581722-8-8-8-1.3100517 0-2.6000575.321723-3.7566849.936904z" transform="matrix(.76604444 -.64278761 .64278761 .76604444 -151.72166 102.454417)"/><path d="m54.2236237 146.066024-39.7030678 21.117074c-3.90084 2.07476-5.38117043 6.918941-3.3064106 10.819781.8260654 1.553119 2.1410186 2.79066 3.7413433 3.521087l39.7030678 18.121446c4.0194024 1.834553 8.7649709.063383 10.599524-3.95602.4759258-1.042726.7222282-2.175548.7222282-3.321752v-39.238521c0-4.418278-3.581722-8-8-8-1.3100517 0-2.6000574.321723-3.7566849.936905z"/></g><g fill="#5c5c5c"><g transform="translate(123.28234 107.37836)"><path d="m42.5 96v29h-8.5c-2.7614237 0-5 2.238576-5 5v9c0 2.761424-2.2385763 5-5 5h-19c-2.76142375 0-5-2.238576-5-5v-38c0-2.7614237 2.23857625-5 5-5zm-42.5-67v-24c0-2.76142375 2.23857625-5 5-5h37.5c34.5177969 0 62.5 27.9822031 62.5 62.5 0 34.1726189-27.4253573 61.939702-61.4664482 62.491627l-1.0335518.008373v-29c18.5015391 0 33.5-14.9984609 33.5-33.5 0-18.3165237-14.6999915-33.1996805-32.9460162-33.495512l-.5539838-.004488z" fill-rule="nonzero"/><rect height="55" rx="5" width="29" x="-.00234" y="10.62164"/></g><g transform="translate(238.78234 112.87836)"><path d="m63.5528064.14074833 20.4429306-.12015221c2.1035712-.01236363 3.9899056 1.29323664 4.719248 3.26636221l48.965317 132.46826267c.957414 2.590139-.366171 5.465999-2.95631 6.423413-.554228.204864-1.140381.309868-1.731259.310138l-21.002721.009628c-2.096565.000961-3.971075-1.306174-4.694878-3.273837l-30.5409201-83.0257183c-.9533333-2.5916436-3.8271049-3.9197566-6.4187485-2.9664233-1.2870622.4734444-2.32317 1.4547497-2.8657902 2.7142106l-3.4696752 8.053368-20-24.5 14.9600126-36.26602294c.7681151-1.86206261 2.57856-3.08139018 4.5927938-3.09322873z" fill-rule="nonzero"/><path d="m63.8983873 14.5663879 8.6016127 29.9336121-40.7012556 94.969596c-.787894 1.83842-2.5955846 3.030404-4.5957252 3.030404h-19.65194798c-2.76142375 0-5-2.238576-5-5 0-.670661.13492228-1.334468.39673673-1.951914l51.54178625-121.5527124c1.0780122-2.5423121 4.012865-3.7293617 6.5551771-2.6513495 1.3885161.5887701 2.4370852 1.7728365 2.853616 3.2223638z" fill-rule="nonzero"/><rect height="29" rx="5" width="42" x="71.21766" y="97.12164"/></g><g transform="translate(445.78234 112.87836)"><path d="m484.021791 0c2.090746 0 3.960746 1.30085052 4.687874 3.26108114l40.892335 110.23891886h8.398c2.761424 0 5 2.238576 5 5v19c0 2.761424-2.238576 5-5 5h-23c-.074697 0-.149011-.001638-.222909-.00488l-2.706613.054795c-2.135891.042907-4.063092-1.27594-4.796523-3.282417l-31.1896-85.3266573c-.803332-2.1977088-3.236156-3.3280743-5.433865-2.5247421-.820112.2997769-1.520581.8427479-2.014149 1.5464391l-37.304802 86.5692533c-.805045 1.868115-2.661603 3.062288-4.695362 3.020146l-2.552568-.052622c-.027815.000456-.055685.000685-.083609.000685h-23c-2.761424 0-5-2.238576-5-5v-19c0-2.761424 2.238576-5 5-5h11.084l41.605-98.119 5.038295-12.27878178c.769918-1.87667569 2.597374-3.10221822 4.625843-3.10221822zm-388.021791 0c2.7614237 0 5 2.23857625 5 5v19c0 2.7614237-2.2385763 5-5 5h-67.001l.001 108c0 2.761424-2.2385763 5-5 5h-19c-2.76142375 0-5-2.238576-5-5v-132c0-2.76142375 2.23857625-5 5-5z" fill-rule="nonzero"/><path d="m474 113.62164h42c2.761424 0 5 2.238576 5 5v19c0 2.761424-2.238576 5-5 5h-42c-2.761424 0-5-2.238576-5-5v-19c0-2.761424 2.238576-5 5-5z"/></g><g transform="translate(687 112.87836)"><path d="m63.5528064.14074833 20.4429306-.12015221c2.1035712-.01236363 3.9899056 1.29323664 4.719248 3.26636221l48.965317 132.46826267c.957414 2.590139-.366171 5.465999-2.95631 6.423413-.554228.204864-1.140381.309868-1.731259.310138l-21.002721.009628c-2.096565.000961-3.971075-1.306174-4.694878-3.273837l-30.5409201-83.0257183c-.9533333-2.5916436-3.8271049-3.9197566-6.4187485-2.9664233-1.2870622.4734444-2.32317 1.4547497-2.8657902 2.7142106l-3.4696752 8.053368-20-24.5 14.9600126-36.26602294c.7681151-1.86206261 2.57856-3.08139018 4.5927938-3.09322873z" fill-rule="nonzero"/><path d="m63.8983873 14.5663879 8.6016127 29.9336121-40.7012556 94.969596c-.787894 1.83842-2.5955846 3.030404-4.5957252 3.030404h-19.65194798c-2.76142375 0-5-2.238576-5-5 0-.670661.13492228-1.334468.39673673-1.951914l51.54178625-121.5527124c1.0780122-2.5423121 4.012865-3.7293617 6.5551771-2.6513495 1.3885161.5887701 2.4370852 1.7728365 2.853616 3.2223638z" fill-rule="nonzero"/><rect height="29" rx="5" width="42" x="71.21766" y="97.12164"/></g><g transform="translate(570.28234 113.37836)"><path d="m43.5 96v29h-8.5c-2.7614237 0-5 2.238576-5 5v9c0 2.761424-2.2385763 5-5 5h-19c-2.76142375 0-5-2.238576-5-5v-38c0-2.7614237 2.23857625-5 5-5zm-42.5-67v-24c0-2.76142375 2.23857625-5 5-5h37.5c34.5177969 0 62.5 27.9822031 62.5 62.5 0 34.1726189-27.4253573 61.939702-61.4664482 62.491627l-1.0335518.008373v-29c18.5015391 0 33.5-14.9984609 33.5-33.5 0-18.3165237-14.6999915-33.1996805-32.9460162-33.495512l-.5539838-.004488z" fill-rule="nonzero"/><rect height="66" rx="5" width="29" x=".71766" y=".00164"/></g></g></g></svg>